<?xml version="1.0" encoding="utf-8"?>
<!-- Generator: Adobe Illustrator 25.1.0, SVG Export Plug-In . SVG Version: 6.00 Build 0)  -->
<svg version="1.1" id="Layer_1" xmlns="http://www.w3.org/2000/svg" xmlns:xlink="http://www.w3.org/1999/xlink" x="0px" y="0px"
	 viewBox="0 0 1568 815" style="enable-background:new 0 0 1568 815;" xml:space="preserve">
<style type="text/css">
	.st0{fill:#2897D4;}
	.st1{fill:#182946;}
	.st2{fill:#86683C;}
	.st3{fill:#0988CA;}
	.st4{fill:#192846;}
	.st5{fill:#6BC3DF;}
	.st6{fill:#FFFFFF;}
</style>
<g id="Group_6523" transform="translate(-205 -842.467)">
	<g id="Group_6502" transform="translate(1137.27 842.467)">
		<g id="Group_6496" transform="translate(158.264)">
			<path id="Path_12921" class="st0" d="M351.8,227.25c-0.94-1.21-1.92-2.36-2.95-3.47c26.03-39.34,15.23-92.34-24.11-118.36
				c-22.69-15.01-51.16-18.31-76.69-8.9c-10.21-26.09-39.63-38.96-65.72-28.75s-38.96,39.63-28.75,65.72
				c6.58,16.81,21.6,28.86,39.44,31.63c-6.13,44.75,23.68,86.52,67.99,95.27c1.16,27.99,24.79,49.74,52.78,48.58
				s49.74-24.79,48.58-52.78C361.93,245.69,358.24,235.57,351.8,227.25L351.8,227.25z"/>
			<path id="Path_12922" class="st0" d="M370.84,205.76c-8.13,6.29-9.63,17.98-3.34,26.11c6.29,8.13,17.98,9.63,26.11,3.34
				c8.13-6.29,9.63-17.98,3.34-26.11c0-0.01-0.01-0.01-0.01-0.02C390.65,200.97,378.97,199.48,370.84,205.76z"/>
			<path id="Path_12923" class="st0" d="M245.52,13.68c-16.18,12.52-19.14,35.78-6.62,51.96s35.78,19.14,51.96,6.62
				c16.18-12.52,19.14-35.78,6.62-51.96c0,0,0,0,0,0C284.96,4.12,261.69,1.16,245.52,13.68C245.52,13.68,245.52,13.68,245.52,13.68z
				"/>
			<path id="Path_12924" class="st0" d="M163.12,153.88c-11.02,8.53-13.03,24.38-4.49,35.4s24.38,13.03,35.4,4.49
				c11.01-8.53,13.03-24.38,4.5-35.39c-8.52-11.02-24.36-13.04-35.38-4.52C163.14,153.86,163.13,153.87,163.12,153.88z"/>
			<path id="Path_12925" class="st0" d="M255.74,262.66c-12.04,9.32-14.25,26.64-4.93,38.69c9.32,12.04,26.64,14.25,38.69,4.93
				s14.25-26.64,4.93-38.69c0,0,0-0.01-0.01-0.01C285.1,255.55,267.79,253.34,255.74,262.66z"/>
			<path id="Path_12926" class="st0" d="M227.31,278.08c-5.92,4.58-7,13.1-2.41,19.02c4.58,5.92,13.1,7,19.02,2.41
				c5.91-4.58,7-13.09,2.42-19.01C241.75,274.58,233.23,273.5,227.31,278.08z"/>
			<path id="Path_12927" class="st0" d="M297.19,43.94c-8.09,6.26-9.58,17.89-3.32,25.98c6.26,8.09,17.89,9.58,25.98,3.32
				c8.09-6.26,9.58-17.89,3.32-25.98c0,0,0,0,0-0.01C316.91,39.16,305.29,37.68,297.19,43.94C297.2,43.93,297.19,43.94,297.19,43.94
				z"/>
			<path id="Path_12928" class="st0" d="M344.43,80.99c-4.84,3.74-5.73,10.7-1.99,15.54s10.7,5.73,15.54,1.99
				c4.84-3.74,5.73-10.7,1.99-15.54c0,0-0.01-0.01-0.01-0.01C356.22,78.13,349.27,77.25,344.43,80.99z"/>
			<path id="Path_12929" class="st0" d="M390.95,231.74c-3.51,2.71-4.15,7.75-1.44,11.26c2.71,3.51,7.75,4.15,11.26,1.44
				c3.51-2.71,4.15-7.75,1.44-11.26c0,0,0,0,0,0C399.5,229.68,394.46,229.03,390.95,231.74
				C390.95,231.74,390.95,231.74,390.95,231.74z"/>
			<path id="Path_12930" class="st0" d="M198.52,158.39L31.71,350.98l44.85-20.74L4.42,411.01L280.63,264.5l-46.81-60.49
				L198.52,158.39z"/>
		</g>
		<g id="Group_6497" transform="translate(0 197.397)">
			<path id="Path_12931" class="st0" d="M83.43,162.58c-24.93-3.13-47.58-16.07-62.94-35.95C-5.46,93.11,0.68,44.91,34.2,18.96
				c0.01,0,0.01-0.01,0.02-0.01C61.49-2.1,100.64,2.9,121.75,30.11c17.21,22.21,13.15,54.16-9.05,71.36
				c-0.02,0.01-0.03,0.02-0.05,0.04c-18.22,14.06-44.39,10.72-58.5-7.46c-11.59-15-8.84-36.56,6.15-48.18
				c12.43-9.62,30.31-7.34,39.92,5.09c1.71,2.11,1.38,5.2-0.72,6.9c-2.11,1.71-5.2,1.38-6.9-0.72c-0.05-0.06-0.09-0.12-0.14-0.18
				c-6.31-8.13-18.01-9.62-26.16-3.33c-10.69,8.3-12.65,23.68-4.39,34.4c10.79,13.9,30.8,16.46,44.73,5.71
				c17.94-13.89,21.23-39.69,7.34-57.63C96.2,13.18,63.21,8.98,40.24,26.71C11,49.31,5.62,91.33,28.22,120.57
				c0.01,0.02,0.03,0.03,0.04,0.05c28.72,37.04,82,43.84,119.1,15.2c2.12-1.69,5.21-1.33,6.9,0.79c1.69,2.12,1.33,5.21-0.79,6.9
				c-0.03,0.02-0.06,0.05-0.1,0.07C133.52,158.97,108.35,165.81,83.43,162.58z"/>
		</g>
		<g id="Group_6498" transform="translate(268.235 366.754)">
			<path id="Path_12932" class="st0" d="M40.41,77.26c-11.35-1.42-21.67-7.32-28.67-16.37c-11.82-15.25-9.04-37.18,6.21-49
				c0.02-0.01,0.03-0.03,0.05-0.04c12.42-9.58,30.24-7.3,39.86,5.09c7.81,10.13,5.96,24.67-4.14,32.51
				c-8.3,6.41-20.22,4.88-26.65-3.4c-5.29-6.83-4.04-16.65,2.79-21.94c0,0,0.01,0,0.01-0.01c5.65-4.38,13.77-3.35,18.15,2.3
				c0.01,0.01,0.01,0.02,0.02,0.02c0.75,0.97,0.58,2.38-0.4,3.13c-0.97,0.75-2.38,0.58-3.13-0.4c-2.87-3.7-8.19-4.38-11.9-1.52
				c-4.87,3.78-5.77,10.79-2.01,15.67c4.92,6.33,14.03,7.49,20.38,2.6c8.16-6.33,9.66-18.07,3.34-26.24
				C46.22,9.23,31.2,7.32,20.74,15.39C7.43,25.67,4.97,44.8,15.26,58.11c0.01,0.01,0.02,0.03,0.03,0.04
				c13.07,16.87,37.33,19.96,54.23,6.92c0.98-0.76,2.38-0.58,3.14,0.39s0.58,2.38-0.39,3.14C63.21,75.61,51.75,78.73,40.41,77.26z"
				/>
		</g>
		<g id="Group_6499" transform="translate(179.993 446.618)">
			<path id="Path_12933" class="st0" d="M75.57,141.76c-0.54,4.34-4.5,7.42-8.84,6.88c-0.01,0-0.02,0-0.03,0l0,0
				c-4.34-0.56-7.41-4.53-6.86-8.88l16.19-126.9c0.56-4.35,4.53-7.42,8.87-6.86c0,0,0,0,0.01,0l0,0c4.33,0.55,7.4,4.51,6.85,8.84
				c0,0.01,0,0.02,0,0.03L75.57,141.76z"/>
			<path id="Path_12934" class="st0" d="M140.25,77.54c4.34,0.55,7.42,4.51,6.87,8.86c0,0.01,0,0.01,0,0.02l0,0
				c-0.55,4.34-4.52,7.42-8.86,6.86c0,0-0.01,0-0.01,0L11.34,77.09C7,76.53,3.93,72.56,4.48,68.22l0,0
				c0.55-4.34,4.52-7.41,8.86-6.86L140.25,77.54z"/>
		</g>
		<g id="Group_6500" transform="translate(340.621 445.173)">
			<path id="Path_12935" class="st0" d="M50.65,52.32c1.19,1.54,0.91,3.75-0.63,4.94l0,0c-1.54,1.19-3.76,0.91-4.95-0.63
				L10.25,11.62c-1.19-1.54-0.91-3.76,0.63-4.95l0,0c1.54-1.19,3.75-0.91,4.94,0.63c0,0,0,0,0,0L50.65,52.32z"/>
			<path id="Path_12936" class="st0" d="M50.79,11.76c1.53-1.19,3.74-0.91,4.94,0.62c0,0,0.01,0.01,0.01,0.01l0,0
				c1.19,1.53,0.92,3.74-0.62,4.94c0,0-0.01,0.01-0.01,0.01L10.1,52.17c-1.54,1.19-3.75,0.9-4.94-0.64l0,0
				C3.96,50,4.24,47.78,5.78,46.59c0,0,0,0,0,0L50.79,11.76z"/>
		</g>
		<g id="Group_6501" transform="translate(186.876 225.268)">
			<path id="Path_12937" class="st0" d="M50.66,52.31c1.19,1.54,0.91,3.75-0.63,4.94l0,0c-1.54,1.19-3.75,0.92-4.94-0.62
				c0,0,0,0-0.01-0.01L10.25,11.61c-1.19-1.54-0.91-3.76,0.63-4.95l0,0c1.55-1.19,3.76-0.9,4.96,0.64L50.66,52.31z"/>
			<path id="Path_12938" class="st0" d="M50.8,11.76c1.54-1.19,3.75-0.91,4.94,0.62c0,0,0,0.01,0.01,0.01l0,0
				c1.19,1.54,0.91,3.76-0.63,4.95L10.11,52.17c-1.54,1.19-3.76,0.91-4.96-0.63l0,0C3.96,50,4.24,47.78,5.78,46.59c0,0,0,0,0,0
				L50.8,11.76z"/>
		</g>
	</g>
	<g id="Group_6509" transform="translate(205 1137.16)">
		<g id="Group_6503" transform="translate(0 141.012)">
			<path id="Path_12939" class="st0" d="M149.27,222.07c-0.7-0.9-1.35-1.82-1.95-2.77c-33.24,11.41-69.44-6.28-80.85-39.52
				c-6.58-19.17-3.64-40.32,7.92-56.96c-16.91-12.24-20.7-35.86-8.47-52.78s35.86-20.7,52.78-8.47
				c10.9,7.89,16.79,20.98,15.45,34.38c33.42,3.95,57.97,33.26,56,66.85c19.97,6.07,31.23,27.18,25.16,47.15
				c-6.07,19.97-27.18,31.23-47.15,25.16C160.67,232.83,154.06,228.27,149.27,222.07L149.27,222.07z"/>
			<path id="Path_12940" class="st0" d="M130.21,231.8c6.05-4.69,14.77-3.58,19.46,2.47c4.69,6.05,3.58,14.77-2.47,19.46
				c-6.05,4.69-14.77,3.58-19.46-2.47c0,0,0,0,0-0.01C123.05,245.19,124.16,236.49,130.21,231.8z"/>
			<path id="Path_12941" class="st0" d="M15.13,105.49c12.05-9.32,29.38-7.11,38.71,4.94s7.11,29.38-4.94,38.71
				c-12.05,9.33-29.38,7.11-38.71-4.94c0,0,0,0-0.01-0.01C0.87,132.14,3.08,114.82,15.13,105.49z"/>
			<path id="Path_12942" class="st0" d="M131.63,72.29c8.21-6.36,20.02-4.85,26.37,3.36c6.36,8.21,4.85,20.02-3.36,26.37
				c-8.21,6.36-20.02,4.85-26.37-3.36c0,0,0-0.01-0.01-0.01C121.92,90.45,123.42,78.65,131.63,72.29
				C131.63,72.29,131.63,72.29,131.63,72.29z"/>
			<path id="Path_12943" class="st0" d="M192.77,159.43c8.98-6.94,21.88-5.29,28.82,3.69c6.94,8.98,5.29,21.88-3.69,28.82
				c-8.98,6.94-21.88,5.29-28.82-3.69c0,0,0,0,0,0C182.14,179.27,183.79,166.38,192.77,159.43
				C192.77,159.44,192.77,159.43,192.77,159.43z"/>
			<path id="Path_12944" class="st0" d="M209.21,141.81c4.41-3.41,10.76-2.6,14.17,1.81s2.6,10.76-1.81,14.17s-10.76,2.6-14.17-1.81
				c0,0,0,0,0-0.01C203.99,151.56,204.8,145.22,209.21,141.81z"/>
			<path id="Path_12945" class="st0" d="M27.29,148.42c6.03-4.66,14.69-3.56,19.35,2.47c4.66,6.03,3.56,14.69-2.47,19.35
				c-6.03,4.66-14.69,3.56-19.35-2.47c-4.66-6.02-3.56-14.68,2.45-19.34C27.28,148.42,27.28,148.42,27.29,148.42z"/>
			<path id="Path_12946" class="st0" d="M45.16,189.41c3.61-2.79,8.79-2.13,11.59,1.47s2.13,8.79-1.47,11.59
				c-3.61,2.79-8.79,2.13-11.59-1.47c0,0,0,0,0,0C40.91,197.38,41.56,192.2,45.16,189.41z"/>
			<path id="Path_12947" class="st0" d="M145.18,251.15c2.61-2.02,6.37-1.55,8.39,1.06c2.02,2.61,1.55,6.37-1.06,8.39
				c-2.61,2.02-6.37,1.55-8.39-1.06c0,0,0,0,0,0C142.09,256.94,142.57,253.18,145.18,251.15
				C145.18,251.16,145.18,251.15,145.18,251.15z"/>
			<path id="Path_12948" class="st0" d="M128.28,98.66l170.08-84.28l-23.35,28.47l71.74-36.92l-157.3,171.79l-34.88-45.07
				L128.28,98.66z"/>
		</g>
		<g id="Group_6504" transform="translate(207.948)">
			<path id="Path_12949" class="st0" d="M116.82,80.25c2.4-18.56-2.69-37.32-14.16-52.12C83.34,3.15,47.42-1.44,22.44,17.89
				c0,0,0,0-0.01,0c-20.28,15.73-24,44.9-8.32,65.22c12.82,16.55,36.63,19.59,53.19,6.78c13.55-10.52,16.04-30.01,5.56-43.59
				c-8.65-11.17-24.72-13.22-35.89-4.57c-9.25,7.17-10.95,20.47-3.79,29.73c1.25,1.59,3.55,1.86,5.13,0.61
				c1.57-1.23,1.86-3.49,0.65-5.08c-4.68-6.07-3.57-14.78,2.49-19.48c7.98-6.16,19.45-4.7,25.62,3.27
				c8.01,10.38,6.11,25.29-4.25,33.32C49.47,94.44,30.26,92,19.92,78.64c0-0.01-0.01-0.01-0.01-0.02
				c-13.21-17.11-10.08-41.69,7-54.94C48.67,6.83,79.98,10.8,96.84,32.57c0.01,0.01,0.02,0.03,0.03,0.04
				c21.34,27.64,16.27,67.33-11.32,88.73c-1.61,1.22-1.92,3.52-0.7,5.13c1.22,1.61,3.52,1.92,5.13,0.7
				c0.02-0.01,0.03-0.02,0.05-0.04C104.84,115.69,114.48,98.82,116.82,80.25z"/>
		</g>
		<g id="Group_6505" transform="translate(287.657 218.593)">
			<path id="Path_12950" class="st0" d="M55.61,39.77c1.09-8.45-1.23-16.99-6.45-23.73C40.37,4.67,24.02,2.57,12.65,11.36
				c-0.01,0.01-0.02,0.01-0.02,0.02C3.4,18.54,1.7,31.83,8.84,41.08c5.84,7.53,16.67,8.91,24.22,3.09
				c6.17-4.79,7.31-13.66,2.54-19.85c-3.94-5.09-11.26-6.02-16.35-2.08c-4.21,3.26-4.99,9.33-1.73,13.54
				c0.56,0.73,1.61,0.86,2.34,0.3c0.73-0.56,0.86-1.61,0.3-2.34c-2.13-2.77-1.63-6.74,1.13-8.89c3.64-2.8,8.86-2.13,11.67,1.49
				c3.64,4.73,2.77,11.52-1.94,15.18c-6.09,4.7-14.84,3.58-19.55-2.5c-6.02-7.8-4.58-18.99,3.2-25.03
				c9.92-7.67,24.18-5.85,31.85,4.06c9.72,12.59,7.41,30.66-5.16,40.41c-0.72,0.58-0.84,1.63-0.26,2.34c0.56,0.7,1.58,0.83,2.3,0.29
				C50.15,55.91,54.54,48.22,55.61,39.77z"/>
		</g>
		<g id="Group_6506" transform="translate(353.167 176.083)">
			<path id="Path_12951" class="st0" d="M104.12,71c3.24,0.42,6.2-1.87,6.61-5.11l0,0c0.42-3.23-1.86-6.19-5.09-6.61
				c-0.01,0-0.01,0-0.02,0L11.07,47.22c-3.24-0.41-6.19,1.88-6.61,5.12l0,0c-0.41,3.24,1.88,6.19,5.11,6.61L104.12,71z"/>
			<path id="Path_12952" class="st0" d="M45.71,105.64c-0.42,3.23,1.87,6.19,5.1,6.61c0,0,0.01,0,0.01,0l0,0
				c3.23,0.42,6.19-1.87,6.61-5.1c0,0,0-0.01,0-0.01l12.06-94.54c0.41-3.24-1.88-6.2-5.12-6.62l0,0c-3.23-0.4-6.19,1.89-6.61,5.12
				L45.71,105.64z"/>
		</g>
		<g id="Group_6507" transform="translate(331.652 284.254)">
			<path id="Path_12953" class="st0" d="M34.71,43.71c0.89,1.14,2.54,1.35,3.69,0.47l0,0c1.14-0.89,1.35-2.54,0.47-3.69L12.92,6.95
				c-0.88-1.15-2.52-1.36-3.67-0.49c-0.01,0-0.01,0.01-0.02,0.01l0,0c-1.15,0.89-1.36,2.54-0.47,3.69c0,0,0,0,0,0L34.71,43.71z"/>
			<path id="Path_12954" class="st0" d="M5.44,36.22c-1.15,0.88-1.37,2.53-0.48,3.68c0,0.01,0.01,0.01,0.01,0.02l0,0
				c0.89,1.15,2.54,1.36,3.69,0.47l33.53-25.95c1.14-0.89,1.36-2.53,0.48-3.68l0,0c-0.89-1.15-2.54-1.36-3.69-0.47L5.44,36.22z"/>
		</g>
		<g id="Group_6508" transform="translate(201.817 132.264)">
			<path id="Path_12955" class="st0" d="M34.7,43.7c0.89,1.15,2.54,1.36,3.69,0.48l0,0c1.15-0.89,1.37-2.54,0.48-3.69c0,0,0,0,0,0
				L12.92,6.95c-0.88-1.15-2.51-1.36-3.66-0.49C9.25,6.47,9.24,6.48,9.23,6.49l0,0c-1.14,0.88-1.36,2.52-0.48,3.66
				c0,0,0.01,0.01,0.01,0.01L34.7,43.7z"/>
			<path id="Path_12956" class="st0" d="M5.44,36.23c-1.15,0.88-1.36,2.52-0.48,3.66c0,0,0,0.01,0.01,0.01l0,0
				c0.89,1.15,2.54,1.37,3.69,0.48c0,0,0,0,0,0l33.53-25.95c1.15-0.89,1.36-2.53,0.47-3.68c0,0,0,0,0,0l0,0
				c-0.88-1.15-2.53-1.36-3.68-0.48c0,0-0.01,0.01-0.01,0.01L5.44,36.23z"/>
		</g>
	</g>
	<g id="Group_6520" transform="translate(-72.234 -473)">
		<ellipse id="Ellipse_332" class="st1" cx="992" cy="2017.38" rx="259.59" ry="41.18"/>
		<g id="Group_6469" transform="translate(2128.061 1281.7)">
			<g id="Group_6468">
				<g id="Group_6466">
					<g id="Group_6465">
						<path id="Path_12881" class="st2" d="M-1212.16,122.58c0,0-20.29-14.61-52.63-25.62c-32.83-11.18-56.59,2.8-74.99-37.73
							c-4.66,42.62,24.22,84.77,24.22,84.77L-1212.16,122.58z"/>
						<path id="Path_12882" class="st2" d="M-1053.04,122.58c0,0,20.29-14.61,52.63-25.62c32.84-11.18,56.59,2.8,74.99-37.73
							c4.66,42.62-24.22,84.77-24.22,84.77L-1053.04,122.58z"/>
					</g>
				</g>
				<g id="Group_6467">
					<path id="Path_12883" class="st2" d="M-1164.4,166.67c0,0-3.24-65.06-30-94.18c27.29,2.44,42.46,19.18,49.25,58.93
						c-3.14-51.98,19.12-58.58,19.12-58.58s-3.31,53.19,9.42,56.51c20.06-35.4,36.87-33.85,51.28-33.14
						c-30.87,21.63-41.6,83.72-41.6,83.72L-1164.4,166.67z"/>
				</g>
			</g>
		</g>
		<path id="Path_12884" class="st3" d="M717.5,1566.81c-0.11-1.35-0.22-2.71-0.34-4.06h0.97
			c11.82-61.02,131.46-147.97,277.33-147.97s265.51,86.95,277.32,147.97h0.97c-0.12,1.35-0.23,2.71-0.34,4.06
			c0.22,1.95,0.34,3.91,0.34,5.87c-0.01,4.57-0.62,9.12-1.81,13.54c-4.97,71.98-6.81,153.13-43.38,228.31
			c-84.92,174.6-204.5,181.68-233.11,180.71c-28.62,0.96-148.2-6.12-233.11-180.71c-36.56-75.18-38.41-156.34-43.38-228.31
			c-1.19-4.42-1.8-8.97-1.81-13.54C717.16,1570.72,717.28,1568.76,717.5,1566.81z"/>
		<g id="Group_6480" transform="translate(2128.061 1281.7)">
			<g id="Group_6474">
				<g id="Group_6473">
					<g id="Group_6472">
						<g id="Group_6471">
							<g id="Group_6470">
								<path id="Path_12885" class="st4" d="M-827.73,474.55c4.14,67.28-68.55,196.34-68.55,196.34s-87.99-119.16-92.14-186.44
									s28.46-124.04,72.83-126.77S-831.87,407.27-827.73,474.55z"/>
							</g>
						</g>
					</g>
				</g>
			</g>
			<g id="Group_6479">
				<g id="Group_6478">
					<g id="Group_6477">
						<g id="Group_6476">
							<g id="Group_6475">
								<path id="Path_12886" class="st4" d="M-1437.47,474.55c-4.15,67.28,68.55,196.34,68.55,196.34s87.99-119.16,92.14-186.44
									s-28.46-124.04-72.84-126.77S-1433.33,407.27-1437.47,474.55z"/>
							</g>
						</g>
					</g>
				</g>
			</g>
		</g>
		<path id="Path_12887" class="st3" d="M1284.1,1584.9c-0.93-74.37-45.05-137.3-105.02-159.06l0,0
			c-33.26-17.34-198.25-62.46-367.24,0l0,0c-59.96,21.76-104.09,84.69-105.02,159.05c-1.19,94.8,66.91,172.07,151.09,172.07
			c14.34,0.01,28.59-2.26,42.23-6.72c61.92-20.32,128.72-20.32,190.65,0c13.63,4.46,27.88,6.72,42.23,6.72
			C1217.18,1756.97,1285.28,1679.7,1284.1,1584.9z"/>
		<g id="Group_6483" transform="translate(2128.061 1281.7)">
			<g id="Group_6481">
				<path id="Path_12888" class="st5" d="M-1213.62,559.25c9.9,0,19.02-4.31,26.36-11.58c2.32-2.3,5.23,1.84,3.35,4.77
					c-7.13,11.11-17.79,18.18-29.71,18.18s-22.58-7.06-29.71-18.18c-1.88-2.92,1.03-7.07,3.35-4.77
					C-1232.63,554.94-1223.51,559.25-1213.62,559.25z"/>
				<path id="Path_12889" class="st5" d="M-1051.58,559.25c9.9,0,19.02-4.31,26.36-11.58c2.32-2.3,5.23,1.84,3.35,4.77
					c-7.13,11.11-17.79,18.18-29.71,18.18s-22.58-7.06-29.71-18.18c-1.87-2.92,1.03-7.07,3.35-4.77
					C-1070.6,554.94-1061.48,559.25-1051.58,559.25z"/>
				<path id="Path_12890" class="st5" d="M-1132.6,559.25c9.9,0,19.02-4.31,26.35-11.58c2.32-2.3,5.23,1.84,3.35,4.77
					c-7.13,11.11-17.79,18.18-29.71,18.18s-22.58-7.06-29.71-18.18c-1.87-2.92,1.03-7.07,3.35-4.77
					C-1151.62,554.94-1142.5,559.25-1132.6,559.25z"/>
			</g>
			<g id="Group_6482">
				<path id="Path_12891" class="st5" d="M-1172,614.81c9.9,0,19.02-4.31,26.36-11.58c2.32-2.3,5.23,1.85,3.35,4.77
					c-7.13,11.11-17.79,18.18-29.71,18.18s-22.58-7.06-29.71-18.18c-1.87-2.92,1.03-7.07,3.35-4.77
					C-1191.01,610.5-1181.89,614.81-1172,614.81z"/>
				<path id="Path_12892" class="st5" d="M-1090.98,614.81c9.9,0,19.02-4.31,26.36-11.58c2.32-2.3,5.23,1.85,3.35,4.77
					c-7.13,11.11-17.79,18.18-29.71,18.18s-22.58-7.06-29.71-18.18c-1.87-2.92,1.03-7.07,3.35-4.77
					C-1110,610.5-1100.88,614.81-1090.98,614.81z"/>
			</g>
		</g>
		<g id="Group_6487" transform="translate(2128.061 1281.7)">
			<g id="Group_6486">
				<g id="Group_6484">
					<path id="Path_12893" class="st2" d="M-1222.59,710.8c0,7.94-4.26,19.48-8.21,28.46c-3.37,7.68-9.73,7.68-13.1,0
						c-3.94-8.98-8.21-20.52-8.21-28.46c0-14.77,6.61-26.74,14.76-26.74S-1222.59,696.03-1222.59,710.8z"/>
					<path id="Path_12894" class="st2" d="M-1190.32,710.8c0,7.94-4.26,19.48-8.21,28.46c-3.37,7.68-9.73,7.68-13.1,0
						c-3.94-8.98-8.21-20.52-8.21-28.46c0-14.77,6.61-26.74,14.76-26.74S-1190.32,696.03-1190.32,710.8z"/>
					<path id="Path_12895" class="st2" d="M-1158.05,710.8c0,7.94-4.27,19.48-8.21,28.46c-3.37,7.68-9.73,7.68-13.1,0
						c-3.94-8.98-8.21-20.52-8.21-28.46c0-14.77,6.61-26.74,14.76-26.74S-1158.05,696.03-1158.05,710.8z"/>
				</g>
				<g id="Group_6485">
					<path id="Path_12896" class="st2" d="M-1084.55,710.8c0,7.94-4.27,19.48-8.21,28.46c-3.37,7.68-9.73,7.68-13.1,0
						c-3.94-8.98-8.21-20.52-8.21-28.46c0-14.77,6.61-26.74,14.76-26.74S-1084.55,696.03-1084.55,710.8z"/>
					<path id="Path_12897" class="st2" d="M-1052.28,710.8c0,7.94-4.26,19.48-8.21,28.46c-3.37,7.68-9.73,7.68-13.1,0
						c-3.94-8.98-8.21-20.52-8.21-28.46c0-14.77,6.61-26.74,14.76-26.74S-1052.28,696.03-1052.28,710.8z"/>
					<path id="Path_12898" class="st2" d="M-1020.01,710.8c0,7.94-4.26,19.48-8.21,28.46c-3.37,7.68-9.73,7.68-13.1,0
						c-3.94-8.98-8.21-20.52-8.21-28.46c0-14.77,6.61-26.74,14.76-26.74S-1020.01,696.03-1020.01,710.8z"/>
				</g>
			</g>
		</g>
		<path id="Path_12899" class="st6" d="M991.59,1655.18c-1.28,2.18-2.59,4.43-3.93,6.66c-21.57,35.9-53.08,57.79-94.45,63.38
			c-56.15,7.58-100.69-12.79-132.33-59.95c-10.45-15.58-16.14-33.18-17.98-51.97c-3.97-40.5,9.17-74.89,37.94-103.06
			c21.45-21,47.62-32.95,77.62-36.09c38.23-4,72.09,6.45,101.56,31.04c11.6,9.75,21.29,21.57,28.58,34.86
			c0.28,0.49,0.52,1.01,0.82,1.49c0.69,1.08,0.9,2.83,2.34,2.99c1.93,0.2,2.15-1.83,2.81-3.06c13.14-24.17,32.23-42.21,56.74-54.42
			c20.69-10.46,43.8-15.2,66.94-13.71c33.08,2.09,62.05,14.43,85.75,37.72c21.61,21.24,34.16,47.11,37.2,77.52
			c5.77,57.68-30.68,110.63-83.78,130.18c-14.7,5.55-30.29,8.39-46.01,8.38c-31.6-0.21-60.11-9.82-84.89-29.82
			c-13.24-10.74-24.21-24.01-32.28-39.03C993.64,1657.2,993.42,1655.73,991.59,1655.18z M771.6,1600.27
			c-0.88,31.12,15.61,60.31,36.76,77.06c22.34,17.7,47.62,25.38,76.1,22.66c23.37-2.03,45.31-12.09,62.1-28.46
			c12.84-12.26,21.44-27.16,26.79-44.07c2.99-9.44,9.11-13.81,18.38-13.86c9.43-0.06,15.26,4.11,18.75,13.43
			c0.4,1.06,0.72,2.15,1.08,3.22c15.9,48.53,64.55,76.77,113.96,69.18c25.79-3.96,47.26-16.04,64.19-36.15
			c31.68-37.61,30.27-95.02-3.79-130.57c-24.64-25.72-55-37.01-90.32-31.83c-41.09,6.02-69.18,29-83.65,68.18
			c-0.74,2.34-1.61,4.64-2.6,6.88c-3.53,7.01-9.26,10.91-17.16,10.98c-8.15,0.07-14.05-3.88-17.64-11.12
			c-1.06-2.42-1.97-4.9-2.73-7.43c-4.64-13.17-11.39-25.16-21.08-35.24c-27.49-28.59-61.03-39.04-99.64-30.82
			C803.18,1512.53,770.56,1555.35,771.6,1600.27z"/>
		<path id="Path_12900" class="st6" d="M992.79,1695.47c3.76,0.33,7.39,1.5,10.64,3.42c2.57,1.57,5.04,3.3,7.4,5.18
			c6.16,4.95,11.9,10.41,18.32,15.07c3.1,2.25,3.22,3.68,0.75,6.47c-1.52,1.67-3.22,3.17-5.08,4.45
			c-8.8,6.23-18.41,11.01-28.19,15.47c-2.17,1.19-4.77,1.31-7.04,0.33c-10.07-4.26-19.69-9.48-28.75-15.6
			c-1.56-1.06-3.03-2.24-4.4-3.53c-3.62-3.48-3.46-4.9,0.36-7.98c5.28-4.25,10.47-8.61,15.68-12.94c3.63-3.01,7.28-5.98,11.6-7.98
			C986.82,1696.52,989.77,1695.71,992.79,1695.47z"/>
		<path id="Path_12902" class="st4" d="M836.1,1534.06c30.72-18.85,74.41-12.66,98.27,16.22c7.25,8.76,12.52,18.99,15.43,29.98
			c1.4,5.22,0,8.87-4.35,11.59c-4.81,3-9.72,5.81-14.56,8.76c-1.81,1.01-3.52,2.19-5.11,3.53c-2.24,2.05-1.9,3.46,0.97,4.4
			c4.51,1.47,9.28,1.65,13.92,2.52c2.04,0.38,4.09,0.73,6.09,1.26c2.38,0.63,3.47,2.19,2.79,4.68c-0.69,2.55-1.32,5.13-2.22,7.61
			c-15,41.24-60.58,62.51-101.82,47.51c-1.52-0.55-3.02-1.15-4.51-1.8c-33.11-14.63-51.01-50.86-42.5-86.05
			c4.11-17.44,14.03-32.96,28.13-44C829.59,1537.93,832.94,1536.12,836.1,1534.06z M917.28,1569.39
			c-3.63-6.24-10.11-7.83-16.43-4.03c-6.04,3.64-7.68,9.91-4.17,15.98c3.42,5.91,10.01,7.7,15.99,4.36
			C919.03,1582.15,920.88,1575.58,917.28,1569.39L917.28,1569.39z"/>
		<path id="Path_12901" class="st4" d="M1148.34,1534.56c28.84,15.78,44.83,51.03,37.36,84.08c-6.54,28.91-30.84,52.17-60.11,57.09
			c-37.1,6.23-71.67-12.18-87.14-46.4c-1.54-3.45-2.75-7.04-3.63-10.71c-1.13-4.6-0.52-5.7,4.18-6.71c3.87-0.84,7.83-1.21,11.74-1.9
			c2.42-0.4,4.81-0.95,7.16-1.64c1.98-0.6,1.99-1.97,0.88-3.52c-1.09-1.31-2.44-2.39-3.96-3.15c-4.06-2.41-8.18-4.72-12.21-7.17
			c-1.93-1.17-3.73-2.56-5.57-3.86c-3.36-2.37-4.08-5.43-3.08-9.42c4.65-18.54,14.7-33.35,30.33-44.3
			C1088.81,1519.75,1123.3,1518.81,1148.34,1534.56z M1087.26,1581.51c3.36-5.33,1.77-12.38-3.57-15.74
			c-0.2-0.12-0.39-0.24-0.6-0.35c-6-3.61-13.35-1.96-16.78,3.79c-3.39,5.68-1.23,13.02,4.85,16.49
			C1077.15,1589.1,1083.85,1587.36,1087.26,1581.51L1087.26,1581.51z"/>
		<circle id="Ellipse_334" class="st6" cx="1079.31" cy="1574.56" r="15"/>
		<circle id="Ellipse_335" class="st6" cx="905.31" cy="1574.56" r="15"/>
	</g>
	<g id="Group_6517" transform="translate(1543.492 1424)">
		<path id="Path_12963" class="st0" d="M54.55,5.93L4.42,227.54l220.67-54.13L54.55,5.93z"/>
		<path id="Path_12964" class="st0" d="M132.41,28.05c10.54-10.74,27.8-10.9,38.54-0.35c0,0,0,0,0,0l30.26,29.72
			c10.74,10.54,10.91,27.8,0.37,38.54c0,0-0.01,0.01-0.01,0.01l-85.11,86.66c-10.55,10.74-27.81,10.9-38.55,0.35c0,0,0,0,0,0
			l-30.27-29.72c-10.74-10.55-10.9-27.8-0.36-38.55c0,0,0,0,0,0L132.41,28.05z"/>
	</g>
</g>
</svg>
